<?xml version="1.0" encoding="iso-8859-1"?>
<!-- Generator: Adobe Illustrator 16.0.0, SVG Export Plug-In . SVG Version: 6.00 Build 0)  -->
<!DOCTYPE svg PUBLIC "-//W3C//DTD SVG 1.1//EN" "http://www.w3.org/Graphics/SVG/1.1/DTD/svg11.dtd">
<svg version="1.1" id="Capa_1" xmlns="http://www.w3.org/2000/svg" xmlns:xlink="http://www.w3.org/1999/xlink" x="0px" y="0px"
	 width="388.17px" height="388.17px" viewBox="0 0 388.17 388.17" style="enable-background:new 0 0 388.17 388.17;"
	 xml:space="preserve">
<g>
	<path d="M349.225,84.094L211.767,4.742c-10.941-6.322-24.429-6.322-35.359,0L38.95,84.094
		c-10.953,6.304-17.689,17.994-17.689,30.641v158.704c0,12.623,6.737,24.314,17.689,30.617l137.458,79.373
		c5.461,3.16,11.57,4.74,17.68,4.74c6.102,0,12.209-1.58,17.681-4.74l137.458-79.373c10.942-6.303,17.683-17.994,17.683-30.617
		V114.732C366.904,102.088,360.166,90.397,349.225,84.094z M242.789,299.496c-19.614,3.102-23.476,4.782-37.549,3.323
		c-11.177-1.153-15.635-13.536-15.917-22.026c-0.82-26.24-0.779-52.584-0.273-78.906c0.485-24.658-2.704-30.19-26.849-21.659
		c0,0-94.247,41.903-105.746-5.411c0,0-5.979-23.08,21.813-48.957c3.202,2.188,7.133,5.573,10.021,8.491
		c23.11,23.362,50.354,29.099,82.107,20.831c11.703-3.04,23.628-5.514,35.604-7.054c29.636-3.81,35.288,9.159,29.342,38.521
		c-2.652,13.13-6.361,23.264-6.535,34.648C227.955,288.838,263.528,296.233,242.789,299.496z M216.061,136.9
		c-14.244,0-25.795-11.55-25.795-25.796c0-14.245,11.551-25.815,25.795-25.815c14.245,0,25.808,11.57,25.808,25.815
		C241.867,125.354,230.308,136.9,216.061,136.9z"/>
</g>
<g>
</g>
<g>
</g>
<g>
</g>
<g>
</g>
<g>
</g>
<g>
</g>
<g>
</g>
<g>
</g>
<g>
</g>
<g>
</g>
<g>
</g>
<g>
</g>
<g>
</g>
<g>
</g>
<g>
</g>
</svg>
